<?xml version="1.0" encoding="utf-8"?>
<!-- Generator: Adobe Illustrator 19.2.1, SVG Export Plug-In . SVG Version: 6.00 Build 0)  -->
<svg version="1.1" id="ga-spam-control" xmlns="http://www.w3.org/2000/svg" xmlns:xlink="http://www.w3.org/1999/xlink" x="0px"
	 y="0px" viewBox="0 0 300 200" style="enable-background:new 0 0 300 200;" xml:space="preserve">
<style type="text/css">
	.st0{fill:#FF0000;}
	.st1{fill:#FFFFFF;}
	.st2{fill:#FCEE21;}
</style>
<g id="logo">
	<g id="text">
		<g id="control">
			<path d="M66.1,175.3c-2.3,1.2-6.9,2.3-12.8,2.3c-13.7,0-24-8.6-24-24.6c0-15.2,10.3-25.5,25.3-25.5c6,0,9.9,1.3,11.5,2.2
				l-1.5,5.1c-2.4-1.2-5.8-2-9.8-2c-11.4,0-18.9,7.3-18.9,20c0,11.9,6.8,19.5,18.6,19.5c3.8,0,7.7-0.8,10.2-2L66.1,175.3z"/>
			<path d="M104.5,159.2c0,12.9-8.9,18.5-17.4,18.5c-9.4,0-16.7-6.9-16.7-17.9c0-11.7,7.6-18.5,17.3-18.5
				C97.8,141.3,104.5,148.5,104.5,159.2z M76.9,159.5c0,7.6,4.4,13.4,10.6,13.4c6,0,10.6-5.7,10.6-13.5c0-5.9-3-13.4-10.4-13.4
				C80.1,146,76.9,152.9,76.9,159.5z"/>
			<path d="M112.5,151.5c0-3.6-0.1-6.6-0.3-9.4h5.6l0.4,5.8h0.1c1.7-3.3,5.8-6.6,11.5-6.6c4.8,0,12.3,2.9,12.3,14.8v20.8h-6.3v-20.1
				c0-5.6-2.1-10.3-8.1-10.3c-4.2,0-7.4,3-8.5,6.5c-0.3,0.8-0.4,1.9-0.4,3v21h-6.3V151.5z"/>
			<path d="M159.8,132v10h9.1v4.8h-9.1v18.8c0,4.3,1.2,6.8,4.8,6.8c1.7,0,2.9-0.2,3.7-0.4l0.3,4.8c-1.2,0.5-3.2,0.9-5.6,0.9
				c-3,0-5.3-0.9-6.8-2.7c-1.8-1.9-2.4-5-2.4-9.1v-19h-5.4V142h5.4v-8.4L159.8,132z"/>
			<path d="M176,152.9c0-4.1-0.1-7.6-0.3-10.9h5.5l0.2,6.8h0.3c1.6-4.7,5.4-7.6,9.6-7.6c0.7,0,1.2,0.1,1.8,0.2v6
				c-0.6-0.1-1.3-0.2-2.2-0.2c-4.5,0-7.6,3.4-8.5,8.1c-0.1,0.9-0.3,1.9-0.3,3v18.6H176V152.9z"/>
			<path d="M230.4,159.2c0,12.9-8.9,18.5-17.4,18.5c-9.4,0-16.7-6.9-16.7-17.9c0-11.7,7.6-18.5,17.3-18.5
				C223.6,141.3,230.4,148.5,230.4,159.2z M202.7,159.5c0,7.6,4.4,13.4,10.6,13.4c6,0,10.6-5.7,10.6-13.5c0-5.9-3-13.4-10.4-13.4
				C206,146,202.7,152.9,202.7,159.5z"/>
			<path d="M238.4,125.8h6.3v51.1h-6.3V125.8z"/>
		</g>
		<g id="spam">
			<path d="M83,114.1c2.8,1.7,6.9,3.2,11.2,3.2c6.4,0,10.2-3.4,10.2-8.3c0-4.5-2.6-7.1-9.1-9.6c-7.9-2.8-12.8-6.9-12.8-13.8
				c0-7.6,6.3-13.2,15.7-13.2c5,0,8.6,1.2,10.7,2.4l-1.7,5.1c-1.6-0.9-4.8-2.3-9.2-2.3c-6.6,0-9.1,4-9.1,7.3c0,4.5,3,6.8,9.6,9.4
				c8.2,3.2,12.4,7.1,12.4,14.3c0,7.5-5.5,14-17,14c-4.7,0-9.8-1.4-12.4-3.1L83,114.1z"/>
			<path d="M119.1,98.3c0-4.5-0.1-8.1-0.3-11.4h5.7l0.3,6h0.1c2.6-4.2,6.7-6.8,12.4-6.8c8.4,0,14.8,7.1,14.8,17.7
				c0,12.5-7.6,18.7-15.8,18.7c-4.6,0-8.6-2-10.7-5.5h-0.1V136h-6.3V98.3z M125.4,107.6c0,0.9,0.1,1.8,0.3,2.6
				c1.2,4.4,5,7.4,9.5,7.4c6.7,0,10.6-5.5,10.6-13.5c0-7-3.7-13-10.4-13c-4.3,0-8.4,3.1-9.6,7.8c-0.2,0.8-0.4,1.7-0.4,2.6V107.6z"/>
			<path d="M179.4,121.8l-0.5-4.4h-0.2c-1.9,2.7-5.7,5.2-10.7,5.2c-7.1,0-10.7-5-10.7-10c0-8.4,7.5-13,21-13v-0.7
				c0-2.9-0.8-8.1-7.9-8.1c-3.2,0-6.6,1-9.1,2.6l-1.4-4.2c2.9-1.9,7.1-3.1,11.4-3.1c10.7,0,13.2,7.3,13.2,14.3v13c0,3,0.1,6,0.6,8.4
				H179.4z M178.4,104c-6.9-0.1-14.8,1.1-14.8,7.8c0,4.1,2.7,6,6,6c4.5,0,7.4-2.9,8.4-5.8c0.2-0.6,0.4-1.4,0.4-2V104z"/>
			<path d="M194.8,96.4c0-3.6-0.1-6.6-0.3-9.4h5.5l0.3,5.6h0.2c1.9-3.3,5.2-6.4,10.9-6.4c4.8,0,8.4,2.9,9.9,7h0.1
				c1.1-1.9,2.4-3.5,3.9-4.5c2.1-1.6,4.4-2.4,7.7-2.4c4.6,0,11.4,3,11.4,15.1v20.5h-6.2V102c0-6.7-2.4-10.7-7.6-10.7
				c-3.6,0-6.4,2.7-7.5,5.8c-0.3,0.9-0.5,2-0.5,3.2v21.5h-6.2v-20.9c0-5.5-2.4-9.6-7.3-9.6c-4,0-6.8,3.2-7.8,6.3
				c-0.4,0.9-0.5,2-0.5,3.1v21h-6.2V96.4z"/>
			<path class="st0" d="M252.7,116c0-3.8,2.7-6.6,6.5-6.6c3.8,0,6.3,2.7,6.4,6.6c0,3.7-2.5,6.6-6.4,6.6
				C255.3,122.6,252.7,119.8,252.7,116z M255.1,105.9l-1.7-32.6h11.4l-1.6,32.6H255.1z"/>
		</g>
	</g>
	<g id="filter">
		<g>
			<path d="M76,46.5c-2,1.9-4.7,2.6-7.2,3.5c-2.8,1.1-5.7,1.7-8.6,2.1c-5.8,0.6-11.7-0.1-17.1-2.4c-1.6-0.6-3.1-1.4-4.3-2.7
				c-0.6-0.6-1-1.4-1.3-2.1c-1.5,10.2,2.3,21,9.7,28.2c8.1,7.9,11,17.5,8.6,28.7c-1,4.6-1.7,4.8-2.8,9.2c-0.4,1.4-0.8,3.2-1.2,5.8
				l3.9,0.5l3.9,0.5c0.6-1.7,1.2-3.5,1.8-5.3C63.9,105,66,97.2,66,89.4c0-3.6-1-8.6,0.3-12.1c0.6-1.7,1.8-3.1,3-4.5
				c0.5-0.5,0.7-1.1,1.1-1.7c0.6-0.8,1.2-1.4,1.8-2.2c2.2-3,3.8-6.4,4.8-10c1.2-4.6,1.3-9.4,0.4-14C77,45.5,76.6,46,76,46.5z"/>
			<g>
				<path d="M75.3,45.8c-4.7,3.8-12.7,5.4-18.6,5.5c-5.6,0.1-15.6-1-18.3-6.9c-0.5-1-1.8-0.3-1.9,0.5c-0.7,5.9,0,11.7,2.2,17.2
					c2.7,6.6,7.6,10.6,11.7,16.2c4.5,6.4,6,14,4.8,21.6c-0.9,5.6-3.3,11-4.4,16.6c-0.1,0.7,0.3,1.2,1,1.3c2.6,0.3,5.3,0.6,7.9,1
					c0.4,0.1,0.8-0.4,1-0.7c2.4-6.9,4.7-13.9,5.8-21.2c0.9-6.5-1.6-15.7,2-21.3c2.8-4.3,6.3-7.8,8.2-12.6c2.4-5.9,2.8-12.1,1.7-18.3
					c-0.2-0.9-1.4-0.9-1.8-0.2C76.1,44.9,75.7,45.4,75.3,45.8c-0.9,0.9,0.5,2.4,1.4,1.4c0.7-0.7,0.9-1,1.5-1.8
					c-0.6-0.1-1.2-0.2-1.8-0.2c1.7,9.7-1,17.8-6.8,25.5c-1.5,2-3.4,4-4.3,6.4c-1.1,3-0.6,6.3-0.5,9.4c0.5,8.9-1.6,17.4-4.3,25.8
					c0,0-1.2,4.6-1.1,4.5c-0.5,0.3-2.8-0.3-3.4-0.4c-1.4-0.2-2.8-0.3-4.2-0.5c0.3,0.4,0.6,0.8,1,1.3c2.3-11.9,7.7-22.5,2.4-34.5
					c-2.6-5.9-7.4-9.5-11-14.7c-4.7-6.7-6.5-14.8-5.6-22.9c-0.6,0.2-1.2,0.3-1.9,0.5c2.8,6.2,12.2,7.7,18.3,7.9
					c7.1,0.3,16.1-1.4,21.7-6C77.7,46.4,76.3,45,75.3,45.8z"/>
			</g>
		</g>
		<g>
			<path class="st1" d="M42.7,49.5c13.2,6.5,53.4-2.9,25.9-13C60.8,33.6,23.4,40.1,42.7,49.5C48.1,52.2,41.1,48.8,42.7,49.5z"/>
			<g>
				<path d="M42.2,50.4c7.3,3.3,16.6,2.7,24.2,1.1c3.7-0.8,13.4-2.9,12.5-8.6c-1-6-11.2-8.1-16.2-8.1c-7.4,0-16.3,1-22.7,4.7
					c-7.7,4.4-1,9.3,4.2,11.8c0.3-0.6,0.7-1.2,1-1.7c-0.8-0.4-1.5-0.7-2.3-1.1c-0.3,0.6-0.7,1.2-1,1.7C42,50.3,42.1,50.4,42.2,50.4
					c1.2,0.6,2.2-1.2,1-1.7c-0.1,0-0.2-0.1-0.2-0.1c-1.2-0.6-2.2,1.2-1,1.7c0.8,0.4,1.5,0.7,2.3,1.1c1.2,0.6,2.2-1.2,1-1.7
					c-2.3-1.1-8.6-3.4-6.4-6.8c1.6-2.4,6-3.3,8.6-4c6.2-1.7,14.5-3.4,20.9-1.4c2.4,0.7,9.9,3.5,8.4,7.1c-1.1,2.8-6.5,4-9,4.6
					C60.2,51,50.5,52,43.2,48.7C42,48.1,41,49.9,42.2,50.4z"/>
			</g>
		</g>
	</g>
	<g id="swearing">
		<g>
			<g>
				<path d="M115.7,31.3c-4.3-5-11.4-6-17-2.5c-5.7,3.6-8.2,10.4-7.6,17c0.6,6.3,4.1,12.7,10.2,15.2c5.7,2.4,12.9,1,16-4.7
					c5.5-9.9-9.4-33.1-19-20.4c-3.4,4.4-3.7,12.8,0.7,16.6c3.6,3.1,9.8,4.6,11.6-0.7c1.3-4-0.1-13.7-6.6-10.6
					c-4.5,2.2-2.9,9.9,2.4,7.3c0.3-0.2,0.6-0.6,0.6-1c0-1.1-0.2-1.2-0.9-2.2c-0.8-1.2-2.8-0.1-1.9,1.1c1.5-2.9,2.9-3.5,4.1-1.9
					c0.9,1.5,1.1,3.2,0.6,4.9c-0.9,3.3-3.4,3.9-6.1,2.6c-5.5-2.6-6.9-12.9-1-16.4C112,29.4,123.6,55,110,59.4
					c-9.9,3.2-17-7.8-16.7-16.4c0.4-10.3,12.5-19.8,20.9-10.1C115.1,34,116.7,32.4,115.7,31.3L115.7,31.3z"/>
			</g>
		</g>
		<g>
			<g>
				<path d="M136,28.8c-4.9,10.9-7.6,22.4-8.1,34.3c-0.1,1.4,2.2,1.4,2.2,0c0.5-11.5,3.1-22.7,7.8-33.2
					C138.5,28.6,136.6,27.5,136,28.8L136,28.8z"/>
			</g>
		</g>
		<g>
			<g>
				<path d="M145.5,30.2c-5.1,9.6-8,19.9-8.6,30.8c-0.1,1.4,2.2,1.4,2.2,0c0.5-10.5,3.3-20.4,8.3-29.6
					C148.1,30.1,146.1,29,145.5,30.2L145.5,30.2z"/>
			</g>
		</g>
		<g>
			<g>
				<path d="M125.5,44.5c8.1,0.3,16.2,1.3,24.2,2.9c1.4,0.3,2-1.9,0.6-2.2c-8.2-1.6-16.4-2.6-24.8-3C124,42.2,124,44.5,125.5,44.5
					L125.5,44.5z"/>
			</g>
		</g>
		<g>
			<g>
				<path d="M123.2,52c7.6,1,15.1,2.6,22.5,4.8c1.4,0.4,2-1.8,0.6-2.2c-7.6-2.3-15.2-3.9-23.1-4.9C121.7,49.5,121.8,51.8,123.2,52
					L123.2,52z"/>
			</g>
		</g>
		<g>
			<g>
				<path d="M167,28.3c-5.4,8.8-8.6,19.6-11.2,29.5c-0.6,2.4,1.7,8.8,2.7,3.9c2.2-10.3,6-19.8,9.6-29.7
					C168.3,31.2,167.8,26.8,167,28.3L167,28.3z"/>
			</g>
		</g>
		<g>
			<g>
				<path d="M159.3,27.7c-1.8-0.6-3.5,0.4-4,2.3c-0.5,1.8,1,3.5,2.8,3.6c1.8,0.1,4-1.2,4.2-3.1c0.3-2-1.6-3-3.3-3
					c-0.9,0-0.9,1.3,0,1.4c0.8,0.1,1.9,0.3,1.9,1.2c0.1,1.3-1.7,2.2-2.7,2.1c-1.3-0.1-2.1-1.2-1.4-2.4c0.6-1,1.4-1,2.4-1.1
					C159.8,28.6,159.9,27.8,159.3,27.7L159.3,27.7z"/>
			</g>
		</g>
		<g>
			<g>
				<path d="M163.3,55.8c-1.7,0.8-2.1,2.8-1.1,4.4c1.1,1.6,3.3,1.9,4.9,0.9c1.6-1.1,2.2-3.5,1.1-5.1c-1.5-2-4.1-1-5.7,0.1
					c-0.9,0.6-0.1,2,0.8,1.4c0.9-0.5,2-1.3,3-0.9c1.3,0.5,0.8,2.3,0,3c-1.9,1.6-4.6-1.4-2.4-2.8C164.5,56.4,164,55.4,163.3,55.8
					L163.3,55.8z"/>
			</g>
		</g>
		<g>
			<g>
				<path d="M191.5,41.1c-6.7-3.7-13.5,4.3-9.3,10.6c1.3,1.9,3.9,1.9,5.9,0.6c3.5-2.2,3.7-7.1,4.2-10.6c0.2-1.4-1.8-2-2.2-0.6
					c-0.6,2.4-3.7,17.4,3.2,13.1c6-3.7,6.1-20.4-1.9-21.8c-11.7-2-19.3,8.1-18.1,18.8c0.6,4.8,2.5,9.9,7.3,11.8
					c4.7,1.8,9.3-0.3,11.9-4.3c0.8-1.2-1.1-2.3-1.9-1.1c-4,6-11.8,3.9-14.1-2.4c-1-2.7-1.3-5.8-1-8.7c0.7-7,8.7-15,16.2-11.3
					c3.5,1.7,3.5,6.2,3.1,9.9c-0.1,1.3-2.1,9.4-4,5.6c-0.8-1.6,0.9-7.2,1.4-9.1c-0.7-0.2-1.4-0.4-2.2-0.6c-0.4,2.9-0.4,7-2.9,9
					c-1.7,1.3-2.6,1-3.5-0.6c-1.5-2.8,0.6-9.8,6.6-6.5C191.7,43.7,192.8,41.8,191.5,41.1L191.5,41.1z"/>
			</g>
		</g>
		<g>
			<g>
				<g>
					<path class="st1" d="M223,39.6c-0.1-2.1,4.9-3,5.8-5c1.2-2.6,1.7-5.5,0.3-8c-1.8-3.1-6.2-4.5-10.2-4.3c-4,0.3-6.3,0.6-9.5,2.7
						c-0.5,0.3-2.9,2.8-2.8,3.4c0,0.7,0.2,2.7,0.5,3.3c0.5,1.1,1.9,3.4,3.4,5.8c0.4,0.6,0.6,1.4,1.5,1.4c-0.4,1.8-0.8,3.6-1.1,5.4
						c0,0.2-0.1,0.4,0.1,0.6c0.2,0.3,0.7,0.4,1.1,0.4c2.8,0.2,5.7,0.3,8.5,0.5c0.7,0,1.5,0,2-0.5c0.2-0.2,0.2-0.4,0.3-0.7
						C222.9,42.9,223.1,41.2,223,39.6z"/>
					<g>
						<path d="M223.4,39.7c0.6-1.9,3.4-2.3,4.8-3.4c1.3-1.1,1.9-2.5,2.2-4.1c0.7-3.5-0.4-6.8-3.5-8.7c-5.4-3.5-16.9-2.5-20.4,3.6
							c-1.3,2.3-0.3,4.7,0.9,6.9c0.9,1.6,2.7,3.4,3.2,5.1c0.5,1.8-1.4,4.5-0.5,6c1.4,2.1,7.5,1.3,9.5,1.3c4.5,0.1,4.3-2.8,4.2-6.8
							c0-0.9-1.5-0.9-1.5,0c0,1.8,0.6,4.2-1.1,5.1c-1.1,0.6-3,0.2-4.2,0.1c-0.9,0-2.6,0.2-3.4-0.2c-2.8-1.3-1.5-3.5-1-5.6
							c0.1-0.3,0-0.7-0.3-0.8c-1.6-0.8-2.7-3.6-3.6-5.1c-1.2-2.3-1.9-4.2-0.1-6.4c2.7-3.1,7.7-3.9,11.6-3.8c2.7,0.1,7,1.2,8.2,3.9
							c1.7,3.8,0.2,7.1-2.8,9.3c-1.4,1-2.8,1.5-3,3.3C222.6,40,223.2,40.1,223.4,39.7z"/>
					</g>
				</g>
				<g>
					<g>
						<path d="M214.6,44.8c0.3-0.7,0.4-1.4,0.6-2.1c0.2-0.6,0.4-1.3,0.4-1.9c0-0.5-0.8-0.8-1-0.3c-0.3,0.7-0.4,1.4-0.5,2.1
							c-0.1,0.7-0.3,1.4-0.3,2.1C213.8,45.2,214.4,45.2,214.6,44.8L214.6,44.8z"/>
					</g>
				</g>
				<g>
					<path d="M213.6,27.4c0.4-0.9,1.7-1.3,2.5-0.8s1.3,1.6,1.1,2.6c-0.2,1-0.9,1.8-1.7,2.4c-0.3,0.2-0.7,0.4-1.2,0.5
						c-0.8,0.1-1.6-0.6-1.9-1.3c-0.7-1.6,0.3-3.7,2-4.1"/>
					<g>
						<path d="M214.1,27.9c0.7-0.8,1.9-0.8,2.2,0.4c0.2,1-0.6,2.2-1.6,2.6c-1,0.4-1.6-0.7-1.4-1.6c0.2-1,0.9-1.2,1.6-1.8
							c0.8-0.6,0.6-1.9-0.5-2c-2.1-0.1-3.5,2.6-3.3,4.5c0.3,2.4,2.8,3.8,4.8,2.4c1.8-1.2,2.9-3.7,1.6-5.7c-1.1-1.6-4-1.7-4.6,0.5
							C212.8,27.9,213.6,28.4,214.1,27.9L214.1,27.9z"/>
					</g>
				</g>
				<g>
					<path d="M221.8,27.2c-0.9,0.8-1.4,2-1.3,3.2c0.1,0.7,0.4,1.4,1,1.7c0.4,0.2,0.8,0.2,1.2,0.1c1.3-0.3,2.1-1.8,1.8-3
						c-0.3-1.3-1.7-2.2-3-1.9"/>
					<g>
						<path d="M222,26.6c-1.9-0.3-2.6,2.7-2.5,4.1c0.3,2,2.1,3.2,4,2.3c1.6-0.7,2.6-2.6,2.1-4.3c-0.5-1.7-2.5-3.3-4.3-2.6
							c-0.8,0.3-1.2,1.9,0,2.1c0.7,0.1,1.5,0.1,2,0.8c0.4,0.6,0.2,1.6-0.5,2c-1,0.6-1.3-0.5-1.2-1.3c0.1-0.9,1-1.6,0.9-2.5
							C222.4,26.9,222.3,26.6,222,26.6L222,26.6z"/>
					</g>
				</g>
				<g>
					<g>
						<path d="M217.2,40.7c-0.4,1.3-0.7,2.7-1.1,4.1c-0.2,0.7,0.6,1,1.1,0.6c0.1,0,0.1-0.1,0.2-0.1c0.6-0.5-0.2-1.3-0.8-1
							c-0.1,0-0.1,0.1-0.2,0.1c0.3,0.2,0.6,0.4,1,0.6c0.2-1.4,0.4-2.7,0.5-4.1C218,40.4,217.3,40.3,217.2,40.7L217.2,40.7z"/>
					</g>
				</g>
				<g>
					<g>
						<path d="M220,40.9c-0.5,0.4-0.4,1.3-0.5,1.9c-0.1,0.8-0.3,1.7-0.1,2.6c0.1,0.6,1,0.5,1.2,0c0.3-0.8,0.2-1.9,0.1-2.7
							c0-0.6,0-1.4-0.5-1.8C220.2,40.8,220.1,40.8,220,40.9L220,40.9z"/>
					</g>
				</g>
			</g>
			<g>
				<g>
					<path class="st1" d="M210.1,46.9c-0.2-0.2-0.4-0.5-0.7-0.7c-0.7-0.7-1.3-1.4-2.3-1.8c-0.6-0.3-1.1-0.4-1.6-0.3
						c-0.5,0.1-0.9,0.5-0.7,1.1c0.2,0.5,0.6,1.1,1,1.6c0.2,0.2,0.4,0.4,0.5,0.6c-0.7-0.3-1.5-0.8-2.2-0.9c-0.7-0.1-1.4,0.1-1.4,0.8
						c0,0.7,0.8,1.7,1.5,2.3c0.5,0.5,1.2,1.1,1.8,1.5c0.5,0.4,1.1,0.7,1.7,1c0.3,0.2,0.8,0.3,1.1,0.4c0.3,0.1,0.5,0.1,0.8,0.2
						c0.2,0.1,0.4,0.2,0.6,0.3c0.5,0.2,1,0.4,1.5,0.7c1.2,0.7,2.3,1.3,3.5,2.1c0.7,0.5,1.4,1.1,2.1,1.6c0.9,0.7,1.8,1.5,2.7,2.3
						c0.8,0.7,1.6,1.3,2.4,2c0.3,0.3,0.6,0.5,0.9,0.7l0,0.1c0.2,0.2,0.4,0.5,0.7,0.7c0.7,0.7,1.3,1.4,2.3,1.8
						c0.6,0.3,1.1,0.4,1.6,0.3c0.5-0.1,0.9-0.5,0.7-1.1c-0.2-0.5-0.6-1.1-1-1.6c-0.2-0.2-0.4-0.4-0.5-0.6c0.7,0.3,1.5,0.8,2.2,0.9
						c0.7,0.1,1.4-0.1,1.4-0.8c0-0.7-0.8-1.7-1.5-2.3c-0.5-0.5-1.2-1.1-1.8-1.5c-0.5-0.4-1.1-0.7-1.7-1c-0.3-0.2-0.8-0.3-1.1-0.4
						c-0.3-0.1-0.5-0.1-0.8-0.2c-0.2-0.1-0.4-0.2-0.6-0.3c-0.5-0.2-1-0.4-1.5-0.7c-1.2-0.7-2.3-1.3-3.5-2.1
						c-0.7-0.5-1.4-1.1-2.1-1.6c-0.9-0.7-1.8-1.5-2.7-2.3c-0.8-0.7-1.6-1.3-2.4-2C210.7,47.4,210.4,47.2,210.1,46.9"/>
					<g>
						<path d="M210.4,46.6c-1-1.1-3.3-3.9-5.2-2.8c-1.7,0.9,0.3,2.9,1,3.7c0.2-0.2,0.3-0.4,0.5-0.6c-0.9-0.4-2.7-1.5-3.7-0.7
							c-0.9,0.7-0.4,1.6,0.1,2.4c1.1,1.7,3.2,3.1,5.1,3.9c2.7,1.2,5.2,2.2,7.6,4c2.3,1.7,4.5,3.6,6.7,5.5c1.1,1,2,2.3,3.4,3
							c0.8,0.5,2.3,1,3,0c0.7-1.2-0.8-2.6-1.5-3.3c-0.2,0.2-0.3,0.4-0.5,0.6c1,0.5,3.3,1.8,4.1,0.3c0.9-1.7-2.3-3.9-3.3-4.7
							c-2.6-1.8-5.8-2.5-8.5-4.3C216,51.6,213.3,49,210.4,46.6c-0.4-0.2-0.9,0.3-0.5,0.6c3.2,2.7,6.3,5.6,9.9,7.8
							c1.7,1,3.4,1.7,5.3,2.4c1,0.4,1.9,1,2.8,1.6c0.3,0.2,1.3,0.8,1.4,1.3c0.5,0.3,0.3,0.7-0.5,1c-0.4,0.8-0.9,1-1.5,0.4
							c-0.4-0.2-0.8,0.3-0.5,0.6c0.3,0.3,0.6,0.7,0.9,1.1c0.9,0.9,0.3,1.2-1.8,0.9c-0.6-0.2-1.1-1-1.5-1.4c-0.5-0.5-0.8-0.9-1.3-1.3
							c-2.1-2-4.4-3.8-6.7-5.6c-1.9-1.5-4.1-2.8-6.4-3.7c-1.2-0.4-2.3-0.7-3.3-1.4c-0.6-0.4-1.6-1-2-1.6c-0.2-0.2-0.3-0.4-0.5-0.5
							c0.6-1.5,1.3-1.8,2.2-1.1c0.4,0.2,0.8-0.3,0.5-0.6c-0.5-0.5-0.9-1-1.3-1.5c1.1-0.8,2-0.8,2.7,0c0.7,0.4,1.2,1.1,1.7,1.7
							C210.2,47.5,210.7,46.9,210.4,46.6L210.4,46.6z"/>
					</g>
				</g>
				<g>
					<path class="st1" d="M222.5,46.9c0.2-0.2,0.4-0.5,0.7-0.7c0.7-0.7,1.3-1.4,2.3-1.8c0.6-0.3,1.1-0.4,1.6-0.3
						c0.5,0.1,0.9,0.5,0.7,1.1c-0.2,0.5-0.6,1.1-1,1.6c-0.2,0.2-0.4,0.4-0.5,0.6c0.7-0.3,1.5-0.8,2.2-0.9c0.7-0.1,1.4,0.1,1.4,0.8
						c0,0.7-0.8,1.7-1.5,2.3c-0.5,0.5-1.2,1.1-1.8,1.5c-0.5,0.4-1.1,0.7-1.7,1c-0.3,0.2-0.8,0.3-1.1,0.4c-0.3,0.1-0.5,0.1-0.8,0.2
						c-0.2,0.1-0.4,0.2-0.6,0.3c-0.5,0.2-1,0.4-1.5,0.7c-1.2,0.7-2.3,1.3-3.5,2.1c-0.7,0.5-1.4,1.1-2.1,1.6
						c-0.9,0.7-1.8,1.5-2.7,2.3c-0.8,0.7-1.6,1.3-2.4,2c-0.3,0.3-0.6,0.5-0.9,0.7l0,0.1c-0.2,0.2-0.4,0.5-0.7,0.7
						c-0.7,0.7-1.3,1.4-2.3,1.8c-0.6,0.3-1.1,0.4-1.6,0.3c-0.5-0.1-0.9-0.5-0.7-1.1c0.2-0.5,0.6-1.1,1-1.6c0.2-0.2,0.4-0.4,0.5-0.6
						c-0.7,0.3-1.5,0.8-2.2,0.9c-0.7,0.1-1.4-0.1-1.4-0.8c0-0.7,0.8-1.7,1.5-2.3c0.5-0.5,1.2-1.1,1.8-1.5c0.5-0.4,1.1-0.7,1.7-1
						c0.3-0.2,0.8-0.3,1.1-0.4c0.3-0.1,0.5-0.1,0.8-0.2c0.2-0.1,0.4-0.2,0.6-0.3c0.5-0.2,1-0.4,1.5-0.7c1.2-0.7,2.3-1.3,3.5-2.1
						c0.7-0.5,1.4-1.1,2.1-1.6c0.9-0.7,1.8-1.5,2.7-2.3c0.8-0.7,1.6-1.3,2.4-2C221.9,47.4,222.2,47.2,222.5,46.9"/>
					<g>
						<path d="M222.8,47.1c0.5-0.6,1-1.3,1.7-1.7c0.7-0.8,1.6-0.8,2.7,0c-0.4,0.6-0.8,1.1-1.3,1.5c-0.3,0.3,0.1,0.8,0.5,0.6
							c0.6-0.6,1.1-0.5,1.5,0.4c0.9,0.4,1,0.8,0.3,1.3c-0.3,0.5-1.3,1.1-1.7,1.5c-1.1,0.8-2.3,1.1-3.6,1.6c-2.3,0.9-4.5,2.3-6.4,3.7
							c-2.2,1.7-4.4,3.5-6.5,5.4c-0.5,0.4-0.9,0.9-1.4,1.3c-0.4,0.5-1.2,1.5-1.7,1.6c-0.7-0.1-1.4-0.3-2.1-0.4
							c0.4-0.6,0.8-1.1,1.3-1.5c0.3-0.3-0.1-0.8-0.5-0.6c-0.2,0.1-0.5,0.2-0.7,0.4c-0.5-0.5-1-1-1.5-1.5c0-0.2,0.9-0.9,1.1-1.1
							c0.8-0.7,1.8-1.4,2.8-1.9c2-0.9,3.9-1.5,5.8-2.6C216.5,52.8,219.5,49.8,222.8,47.1c0.4-0.3-0.2-0.8-0.5-0.5
							c-2.9,2.4-5.6,5-8.7,7.1c-2.7,1.8-5.9,2.5-8.5,4.3c-1.1,0.7-4.2,3-3.3,4.7c0.8,1.5,3.2,0.1,4.1-0.3c-0.2-0.2-0.3-0.4-0.5-0.6
							c-0.7,0.7-2.1,2-1.6,3.1c0.5,1.1,1.9,0.8,2.8,0.4c1.4-0.7,2.4-2,3.5-3c2.2-2,4.5-3.9,6.9-5.7c2.4-1.8,4.8-2.9,7.6-4
							c1.8-0.8,3.7-2.1,4.9-3.6c0.6-0.7,1.3-1.8,0.5-2.6c-1-1-2.9,0.2-3.9,0.6c0.2,0.2,0.3,0.4,0.5,0.6c0.8-0.8,2.7-2.8,1-3.7
							c-1.9-1-4.1,1.7-5.2,2.8C221.9,46.9,222.5,47.5,222.8,47.1L222.8,47.1z"/>
					</g>
				</g>
			</g>
		</g>
		<g>
			<path class="st2" d="M247.7,36.7c0,0.1,0,0.1,0,0.2c0.7-1.2,0.9-2.7,1.3-4.1c0.5-1.6,1.1-3.4,1.7-4.9c0.3-0.7,0.9-2.2,1.7-2.5
				c0,0.1,0,0.1,0,0.2l0,0.9c0.3,0.8,0.7,2.5,1,3.3c0.5,1.3,1.5,2.2,2.3,3.3c0.4,0.5,0.7,1,1.2,1.6c0.4,0.4,0.5,0.8,0.7,0.9
				c0.2,0.3,0.4,0.5,0.7,0.7c0.6,0.6,1.7,0.4,2.5,0.4c2.3,0.1,4.5,0.4,6.7,1.2c1.2,0.4,2.4,0.1,3.6,0.5c-0.6,0.7-1.5,0.9-2.1,1.7
				c-1,1.3-1.9,2.5-2.8,3.9c-0.4,0.6-1,1.1-1.4,1.7c-0.3,0.4-0.6,0.9-1,1.3c-0.4,0.5-1.2,1.1-1.5,1.8c-0.3,0.7,0.2,1.5,0.5,2.1
				c0.5,1.1,0.8,2.3,1.2,3.4c0.3,0.9,0.6,1.8,1.1,2.7c0.4,0.8,0.4,1,0.3,2l-1.1-0.7c-0.5-0.2-0.6-0.2-1.1-0.4
				c-0.6-0.3-1.2-0.4-1.9-0.6c-2.6-0.6-5.8-2.1-7.4-4.2l-0.6,0.4c-0.8,0.4-1.7,1-2.4,1.5c-1.2,0.8-2.3,1.7-3.5,2.5
				c-0.8,0.5-1.5,0.9-2.2,1.6c-0.4,0.4-1.5,1.5-2.1,1.5c-0.3-1.1,0.1-2.6,0.3-3.7c0.2-1.1,0.1-2.1,0.2-3.2c0.1-0.8,0.3-1.6,0.4-2.3
				c0.2-1.7,0.3-4.1,0.3-5.8c-0.8-0.5-1.6-1.1-2.4-1.7c-1.4-1-2.9-2-4.2-3.2c-0.4-0.3-1.9-1.5-2-2.1c0.4,0.5,1.2,0.7,1.8,0.6
				c1.8-0.1,3.8-0.4,5.6-0.8c1.3-0.3,4-1.1,4.7-1.3"/>
			<g>
				<path d="M247,36.5c0,0.1,0,0.1,0,0.2c-0.1,0.7,0.9,1.3,1.2,0.5c1.6-3.5,1.7-8.8,4.8-11.4c-0.4-0.1-0.9-0.2-1.3-0.3
					c0.7,4,2.2,7.4,5.1,10.4c0.9,0.9,1.2,1.1,2.6,1.5c1.9,0.5,4.2,0.2,6.1,0.6c1.8,0.4,3.6,0.8,5.4,1c-0.2-0.5-0.4-0.9-0.6-1.4
					c-1.7,1.3-2.9,2.7-4.1,4.4c-1.3,1.7-3.5,3.7-4.4,5.7c-1.8,3.6,2.6,7.4,2.6,11.1c0.4-0.2,0.9-0.5,1.3-0.7
					c-3.6-2.5-8-2.4-11.3-5.9c-0.3-0.3-0.8-0.4-1.1-0.1c-1.8,1.2-3.6,2.4-5.3,3.6c-1.5,1.1-3.5,3.1-5.3,3.8c0.4,0.3,0.8,0.6,1.2,0.9
					c-0.4-4.7,2.1-9.8,1.2-14.4c-0.7-3.8-6.7-4.8-8.7-8.2c-0.5,0.5-0.9,0.9-1.4,1.4c3.3,2.1,9.5-0.3,12.8-1.4
					c1.3-0.4,0.8-2.4-0.6-2.1c-2.9,0.8-8.5,3.4-11.2,1.7c-0.9-0.6-1.9,0.5-1.4,1.4c1.9,3.2,7.5,4.4,8.5,7.8c1.2,4-1.5,9.6-1.1,13.7
					c0,0.5,0.6,1.1,1.2,0.9c2.9-1.1,8.2-7.9,10.8-7.2c0.2,0.1,1.5,1.4,2.1,1.8c0.9,0.6,1.9,1,2.9,1.4c2,0.7,4,1,5.9,2.3
					c0.5,0.4,1.3-0.1,1.3-0.7c0-3.6-3.1-6.4-2.3-10c0.8-3.3,5.2-8.1,7.7-10.1c0.6-0.5,0-1.3-0.6-1.4c-4.1-0.5-11.2-1.1-14.1-4.1
					c-2.2-2.3-3.2-5.2-3.7-8.2c-0.1-0.6-0.9-0.7-1.3-0.3c-3.2,2.8-3.4,8.2-4.9,11.9c0.4,0.1,0.9,0.1,1.3,0.2c0-0.1,0-0.1,0-0.2
					C248.4,35.9,247.1,35.8,247,36.5L247,36.5z"/>
			</g>
		</g>
	</g>
</g>
</svg>
